# xmcd CD database file
#
# Track frame offsets:
#	150
#	32400
#	50810
#	70800
#	91687
#	106212
#	127325
#	146537
#	168487
#	187007
#	208752
#	227537
#
# Disc length: 3238 seconds
#
# Revision: 2
# Processed by: cddbd v1.5.2PL0 Copyright (c) Steve Scherf et al.
# Submitted via: CDex 1.70beta2
#
DISCID=a90ca40c
DTITLE=Various Artist - クルージング・フュージョン
DYEAR=1986
DGENRE=Jazz
TTITLE0=村松 健/グリーン・シャワー
TTITLE1=伊藤たけし/セイ・イット・アゲイン
TTITLE2=ナニワ・エキスプレス/インサイド・オブ・ユー
TTITLE3=ザ・スクェア/バナナ
TTITLE4=マリーン/エンドレス・サマー・ラヴ
TTITLE5=渡辺貞夫/ライド・オン
TTITLE6=ザ・スクェア/チェンジ・ユア・マインド
TTITLE7=ザ・プレイヤーズ/ワンダフル・ガイ
TTITLE8=ナニワ・エキスプレス/ジャスミン
TTITLE9=村松 健/ムーンライト・レディー
TTITLE10=溝口 肇/露野
TTITLE11=マリーン/アイム・ソー・エキサイテッド
EXTD=YEAR: 1986
EXTT0=
EXTT1=
EXTT2=
EXTT3=
EXTT4=
EXTT5=
EXTT6=
EXTT7=
EXTT8=
EXTT9=
EXTT10=
EXTT11=
PLAYORDER=
